<?xml version="1.0" encoding="UTF-8" standalone="no"?>
<svg
   xmlns:dc="http://purl.org/dc/elements/1.1/"
   xmlns:cc="http://creativecommons.org/ns#"
   xmlns:rdf="http://www.w3.org/1999/02/22-rdf-syntax-ns#"
   xmlns:svg="http://www.w3.org/2000/svg"
   xmlns="http://www.w3.org/2000/svg"
   xmlns:sodipodi="http://sodipodi.sourceforge.net/DTD/sodipodi-0.dtd"
   xmlns:inkscape="http://www.inkscape.org/namespaces/inkscape"
   width="100"
   height="100"
   viewBox="0 0 26.458333 26.458334"
   version="1.1"
   id="svg8"
   inkscape:version="1.0 (1.0+r73+1)"
   sodipodi:docname="logo-sm-color.svg">
  <defs
     id="defs2" />
  <sodipodi:namedview
     id="base"
     pagecolor="#ffffff"
     bordercolor="#666666"
     borderopacity="1.0"
     inkscape:pageopacity="0.0"
     inkscape:pageshadow="2"
     inkscape:zoom="5.6"
     inkscape:cx="50.506979"
     inkscape:cy="44.367791"
     inkscape:document-units="mm"
     inkscape:current-layer="layer1"
     inkscape:document-rotation="0"
     showgrid="false"
     units="px"
     inkscape:window-width="1920"
     inkscape:window-height="993"
     inkscape:window-x="0"
     inkscape:window-y="24"
     inkscape:window-maximized="1" />
  <metadata
     id="metadata5">
    <rdf:RDF>
      <cc:Work
         rdf:about="">
        <dc:format>image/svg+xml</dc:format>
        <dc:type
           rdf:resource="http://purl.org/dc/dcmitype/StillImage" />
        <dc:title />
      </cc:Work>
    </rdf:RDF>
  </metadata>
  <g
     inkscape:label="Capa 1"
     inkscape:groupmode="layer"
     id="layer1">
    <ellipse
       style="fill:#ffffff;fill-opacity:1;stroke:none;stroke-width:0.740833;stroke-linecap:round;stroke-miterlimit:4;stroke-dasharray:none;paint-order:markers fill stroke"
       id="path910"
       cx="13.292864"
       cy="13.273756"
       rx="10.892421"
       ry="10.911453" />
    <ellipse
       style="fill:#F8971E;fill-opacity:1;stroke:none;stroke-width:0.74083;stroke-linecap:round;stroke-miterlimit:4;stroke-dasharray:none;paint-order:markers fill stroke"
       id="ellipse1560"
       cx="13.292865"
       cy="13.273757"
       rx="11.626042"
       ry="11.646358" />
    <ellipse
       ry="7.2801766"
       rx="7.2674785"
       cy="13.273756"
       cx="13.292864"
       id="ellipse912"
       style="fill:#d06118;fill-opacity:1;stroke:none;stroke-width:0.740831;stroke-linecap:round;stroke-miterlimit:4;stroke-dasharray:none;paint-order:markers fill stroke" />
    <path
       style="color:#000000;font-style:normal;font-variant:normal;font-weight:normal;font-stretch:normal;font-size:medium;line-height:normal;font-family:sans-serif;font-variant-ligatures:normal;font-variant-position:normal;font-variant-caps:normal;font-variant-numeric:normal;font-variant-alternates:normal;font-variant-east-asian:normal;font-feature-settings:normal;font-variation-settings:normal;text-indent:0;text-align:start;text-decoration:none;text-decoration-line:none;text-decoration-style:solid;text-decoration-color:#000000;letter-spacing:normal;word-spacing:normal;text-transform:none;writing-mode:lr-tb;direction:ltr;text-orientation:mixed;dominant-baseline:auto;baseline-shift:baseline;text-anchor:start;white-space:normal;shape-padding:0;shape-margin:0;inline-size:0;clip-rule:nonzero;display:inline;overflow:visible;visibility:visible;opacity:1;isolation:auto;mix-blend-mode:normal;color-interpolation:sRGB;color-interpolation-filters:linearRGB;solid-color:#000000;solid-opacity:1;vector-effect:none;fill:#ffffff;fill-opacity:1;fill-rule:nonzero;stroke:none;stroke-width:1.32292;stroke-linecap:round;stroke-linejoin:miter;stroke-miterlimit:4;stroke-dasharray:none;stroke-dashoffset:0;stroke-opacity:1;paint-order:markers fill stroke;color-rendering:auto;image-rendering:auto;shape-rendering:auto;text-rendering:auto;enable-background:accumulate;stop-color:#000000;stop-opacity:1"
       d="m 13.159094,5.0199616 c -4.5226786,0 -8.2059347,3.6810967 -8.2059347,8.2037754 0,4.522678 3.6832561,8.205935 8.2059347,8.205935 4.421654,0 7.986036,-3.537335 8.145469,-7.920887 a 0.73133774,0.73133774 0 0 0 0.0583,-0.285048 0.73133774,0.73133774 0 0 0 -0.0583,-0.287208 0.73133774,0.73133774 0 0 0 -0.0022,-0.0065 C 21.138153,8.5508615 17.577592,5.0199616 13.159094,5.0199616 Z m 0,1.461952 c 3.73219,0 6.741823,3.0096331 6.741823,6.7418234 0,3.73219 -3.009633,6.743982 -6.741823,6.743982 -3.73219,0 -6.7418232,-3.011792 -6.7418232,-6.743982 0,-3.7321902 3.0096332,-6.7418234 6.7418232,-6.7418234 z"
       id="path872" />
    <path
       id="circle839"
       style="fill:#ffffff;stroke:none;stroke-width:0.200001;stroke-linecap:round;paint-order:markers fill stroke"
       d="M 15.158875,5.8789871 A 1.9789084,1.9789084 0 0 1 13.179966,7.8578955 1.9789084,1.9789084 0 0 1 11.201058,5.8789871 1.9789084,1.9789084 0 0 1 13.179966,3.9000787 1.9789084,1.9789084 0 0 1 15.158875,5.8789871" />
    <path
       id="circle841"
       style="fill:#ffffff;stroke:none;stroke-width:0.200001;stroke-linecap:round;paint-order:markers fill stroke"
       d="m 15.13734,20.732247 a 1.9789084,1.9789084 0 0 1 -1.978909,1.978909 1.9789084,1.9789084 0 0 1 -1.978908,-1.978909 1.9789084,1.9789084 0 0 1 1.978908,-1.978908 1.9789084,1.9789084 0 0 1 1.978909,1.978908" />
    <path
       id="circle847"
       style="fill:#ffffff;stroke:none;stroke-width:0.200001;stroke-linecap:round;paint-order:markers fill stroke"
       d="m 20.595829,15.295293 a 1.9789084,1.9789084 0 0 1 -1.978907,-1.978909 1.9789084,1.9789084 0 0 1 1.978907,-1.978908 1.9789084,1.9789084 0 0 1 1.978908,1.978908 1.9789084,1.9789084 0 0 1 -1.978908,1.978909" />
    <path
       id="circle849"
       style="fill:#ffffff;stroke:none;stroke-width:0.200001;stroke-linecap:round;paint-order:markers fill stroke"
       d="M 5.7425692,15.273758 A 1.9789084,1.9789084 0 0 1 3.7636608,13.29485 1.9789084,1.9789084 0 0 1 5.7425692,11.315941 1.9789084,1.9789084 0 0 1 7.7214777,13.29485 1.9789084,1.9789084 0 0 1 5.7425692,15.273758" />
    <g
       id="g863"
       transform="matrix(0.67155434,0.67155434,-0.67155434,0.67155434,0.64540175,0.67627546)"
       style="opacity:1;fill:#ffffff;stroke-width:1.05294">
      <path
         style="color:#000000;font-style:normal;font-variant:normal;font-weight:normal;font-stretch:normal;font-size:medium;line-height:normal;font-family:sans-serif;font-variant-ligatures:normal;font-variant-position:normal;font-variant-caps:normal;font-variant-numeric:normal;font-variant-alternates:normal;font-variant-east-asian:normal;font-feature-settings:normal;font-variation-settings:normal;text-indent:0;text-align:start;text-decoration:none;text-decoration-line:none;text-decoration-style:solid;text-decoration-color:#000000;letter-spacing:normal;word-spacing:normal;text-transform:none;writing-mode:lr-tb;direction:ltr;text-orientation:mixed;dominant-baseline:auto;baseline-shift:baseline;text-anchor:start;white-space:normal;shape-padding:0;shape-margin:0;inline-size:0;clip-rule:nonzero;display:inline;overflow:visible;visibility:visible;isolation:auto;mix-blend-mode:normal;color-interpolation:sRGB;color-interpolation-filters:linearRGB;solid-color:#000000;solid-opacity:1;vector-effect:none;fill:#ffffff;fill-opacity:1;fill-rule:nonzero;stroke:none;stroke-width:0.780053;stroke-linecap:round;stroke-linejoin:miter;stroke-miterlimit:4;stroke-dasharray:none;stroke-dashoffset:0;stroke-opacity:1;paint-order:markers fill stroke;color-rendering:auto;image-rendering:auto;shape-rendering:auto;text-rendering:auto;enable-background:accumulate;stop-color:#000000;stop-opacity:1"
         d="m 17.689453,-3.9121094 v 0.3710938 7.7148437 h 2.064453 v -8.0859375 z"
         id="path867"
         sodipodi:nodetypes="cccccc" />
    </g>
  </g>
</svg>
