<?xml version="1.0" encoding="UTF-8" standalone="no"?>
<svg
   xmlns:dc="http://purl.org/dc/elements/1.1/"
   xmlns:cc="http://creativecommons.org/ns#"
   xmlns:rdf="http://www.w3.org/1999/02/22-rdf-syntax-ns#"
   xmlns:svg="http://www.w3.org/2000/svg"
   xmlns="http://www.w3.org/2000/svg"
   xmlns:sodipodi="http://sodipodi.sourceforge.net/DTD/sodipodi-0.dtd"
   xmlns:inkscape="http://www.inkscape.org/namespaces/inkscape"
   sodipodi:docname="logo-sm.svg"
   inkscape:version="1.0 (1.0+r73+1)"
   id="svg8"
   version="1.1"
   viewBox="0 0 26.458333 26.458334"
   height="100"
   width="100">
  <defs
     id="defs2" />
  <sodipodi:namedview
     inkscape:window-maximized="1"
     inkscape:window-y="24"
     inkscape:window-x="0"
     inkscape:window-height="993"
     inkscape:window-width="1920"
     units="px"
     showgrid="false"
     inkscape:document-rotation="0"
     inkscape:current-layer="layer1"
     inkscape:document-units="mm"
     inkscape:cy="34.823743"
     inkscape:cx="17.719309"
     inkscape:zoom="3.959798"
     inkscape:pageshadow="2"
     inkscape:pageopacity="0.0"
     borderopacity="1.0"
     bordercolor="#666666"
     pagecolor="#ffffff"
     id="base" />
  <metadata
     id="metadata5">
    <rdf:RDF>
      <cc:Work
         rdf:about="">
        <dc:format>image/svg+xml</dc:format>
        <dc:type
           rdf:resource="http://purl.org/dc/dcmitype/StillImage" />
        <dc:title></dc:title>
      </cc:Work>
    </rdf:RDF>
  </metadata>
  <g
     id="layer1"
     inkscape:groupmode="layer"
     inkscape:label="Capa 1">
    <path
       id="path856"
       d="M 13.171875 2.5097656 C 7.2599071 2.5097657 2.453125 7.3165477 2.453125 13.228516 C 2.453125 19.140484 7.2599071 23.947266 13.171875 23.947266 C 19.083843 23.947266 23.890625 19.140484 23.890625 13.228516 C 23.890625 7.3165477 19.083843 2.5097656 13.171875 2.5097656 z M 13.171875 3.8339844 C 18.368884 3.8339844 22.566406 8.0315067 22.566406 13.228516 C 22.566406 18.425525 18.368884 22.625 13.171875 22.625 C 7.9748661 22.625 3.7753906 18.425525 3.7753906 13.228516 C 3.7753906 8.0315067 7.9748661 3.8339844 13.171875 3.8339844 z "
       style="color:#000000;font-style:normal;font-variant:normal;font-weight:normal;font-stretch:normal;font-size:medium;line-height:normal;font-family:sans-serif;font-variant-ligatures:normal;font-variant-position:normal;font-variant-caps:normal;font-variant-numeric:normal;font-variant-alternates:normal;font-variant-east-asian:normal;font-feature-settings:normal;font-variation-settings:normal;text-indent:0;text-align:start;text-decoration:none;text-decoration-line:none;text-decoration-style:solid;text-decoration-color:#000000;letter-spacing:normal;word-spacing:normal;text-transform:none;writing-mode:lr-tb;direction:ltr;text-orientation:mixed;dominant-baseline:auto;baseline-shift:baseline;text-anchor:start;white-space:normal;shape-padding:0;shape-margin:0;inline-size:0;clip-rule:nonzero;display:inline;overflow:visible;visibility:visible;isolation:auto;mix-blend-mode:normal;color-interpolation:sRGB;color-interpolation-filters:linearRGB;solid-color:#000000;solid-opacity:1;vector-effect:none;fill:#000000;fill-opacity:1;fill-rule:nonzero;stroke:none;stroke-width:1.32292;stroke-linecap:round;stroke-linejoin:miter;stroke-miterlimit:4;stroke-dasharray:none;stroke-dashoffset:0;stroke-opacity:1;paint-order:markers fill stroke;color-rendering:auto;image-rendering:auto;shape-rendering:auto;text-rendering:auto;enable-background:accumulate;stop-color:#000000;stop-opacity:1;opacity:1" />
    <path
       id="path872"
       d="M 13.171875 5.8085938 C 9.0813289 5.8085938 5.75 9.1379696 5.75 13.228516 C 5.75 17.319062 9.0813289 20.650391 13.171875 20.650391 C 17.17105 20.650391 20.394863 17.451041 20.539062 13.486328 A 0.66145998 0.66145998 0 0 0 20.591797 13.228516 A 0.66145998 0.66145998 0 0 0 20.539062 12.96875 A 0.66145998 0.66145998 0 0 0 20.537109 12.962891 C 20.388552 9.0021237 17.168195 5.8085938 13.171875 5.8085938 z M 13.171875 7.1308594 C 16.547462 7.1308594 19.269531 9.8529285 19.269531 13.228516 C 19.269531 16.604103 16.547462 19.328125 13.171875 19.328125 C 9.796288 19.328125 7.0742188 16.604103 7.0742188 13.228516 C 7.0742188 9.8529286 9.796288 7.1308594 13.171875 7.1308594 z "
       style="color:#000000;font-style:normal;font-variant:normal;font-weight:normal;font-stretch:normal;font-size:medium;line-height:normal;font-family:sans-serif;font-variant-ligatures:normal;font-variant-position:normal;font-variant-caps:normal;font-variant-numeric:normal;font-variant-alternates:normal;font-variant-east-asian:normal;font-feature-settings:normal;font-variation-settings:normal;text-indent:0;text-align:start;text-decoration:none;text-decoration-line:none;text-decoration-style:solid;text-decoration-color:#000000;letter-spacing:normal;word-spacing:normal;text-transform:none;writing-mode:lr-tb;direction:ltr;text-orientation:mixed;dominant-baseline:auto;baseline-shift:baseline;text-anchor:start;white-space:normal;shape-padding:0;shape-margin:0;inline-size:0;clip-rule:nonzero;display:inline;overflow:visible;visibility:visible;isolation:auto;mix-blend-mode:normal;color-interpolation:sRGB;color-interpolation-filters:linearRGB;solid-color:#000000;solid-opacity:1;vector-effect:none;fill:#000000;fill-opacity:1;fill-rule:nonzero;stroke:none;stroke-width:1.32292;stroke-linecap:round;stroke-linejoin:miter;stroke-miterlimit:4;stroke-dasharray:none;stroke-dashoffset:0;stroke-opacity:1;paint-order:markers fill stroke;color-rendering:auto;image-rendering:auto;shape-rendering:auto;text-rendering:auto;enable-background:accumulate;stop-color:#000000;stop-opacity:1;opacity:1" />
    <path
       d="m 14.980581,6.5855412 a 1.7898279,1.7898279 0 0 1 -1.789828,1.789828 1.7898279,1.7898279 0 0 1 -1.789828,-1.789828 1.7898279,1.7898279 0 0 1 1.789828,-1.7898279 1.7898279,1.7898279 0 0 1 1.789828,1.7898279"
       style="fill:#000000;stroke:none;stroke-width:0.200001;stroke-linecap:round;paint-order:markers fill stroke"
       id="circle839" />
    <path
       d="m 14.961104,20.019604 a 1.7898279,1.7898279 0 0 1 -1.789828,1.789828 1.7898279,1.7898279 0 0 1 -1.789828,-1.789828 1.7898279,1.7898279 0 0 1 1.789828,-1.789828 1.7898279,1.7898279 0 0 1 1.789828,1.789828"
       style="fill:#000000;stroke:none;stroke-width:0.200001;stroke-linecap:round;paint-order:markers fill stroke"
       id="circle841" />
    <path
       d="m 15.102139,-19.898046 a 1.7898279,1.7898279 0 0 1 -1.789828,1.789827 1.7898279,1.7898279 0 0 1 -1.789828,-1.789827 1.7898279,1.7898279 0 0 1 1.789828,-1.789828 1.7898279,1.7898279 0 0 1 1.789828,1.789828"
       transform="rotate(90)"
       style="fill:#000000;stroke:none;stroke-width:0.200001;stroke-linecap:round;paint-order:markers fill stroke"
       id="circle847" />
    <path
       d="m 15.082662,-6.4639835 a 1.7898279,1.7898279 0 0 1 -1.789828,1.7898279 1.7898279,1.7898279 0 0 1 -1.789828,-1.7898279 1.7898279,1.7898279 0 0 1 1.789828,-1.789828 1.7898279,1.7898279 0 0 1 1.789828,1.789828"
       transform="rotate(90)"
       style="fill:#000000;stroke:none;stroke-width:0.200001;stroke-linecap:round;paint-order:markers fill stroke"
       id="circle849" />
    <g
       style="opacity:1"
       transform="rotate(45)"
       id="g863">
      <path
         sodipodi:nodetypes="cccccc"
         id="path867"
         d="m 17.689453,-3.9121094 v 0.3710938 7.7148437 l 2.064453,0 0,-8.0859375 z"
         style="color:#000000;font-style:normal;font-variant:normal;font-weight:normal;font-stretch:normal;font-size:medium;line-height:normal;font-family:sans-serif;font-variant-ligatures:normal;font-variant-position:normal;font-variant-caps:normal;font-variant-numeric:normal;font-variant-alternates:normal;font-variant-east-asian:normal;font-feature-settings:normal;font-variation-settings:normal;text-indent:0;text-align:start;text-decoration:none;text-decoration-line:none;text-decoration-style:solid;text-decoration-color:#000000;letter-spacing:normal;word-spacing:normal;text-transform:none;writing-mode:lr-tb;direction:ltr;text-orientation:mixed;dominant-baseline:auto;baseline-shift:baseline;text-anchor:start;white-space:normal;shape-padding:0;shape-margin:0;inline-size:0;clip-rule:nonzero;display:inline;overflow:visible;visibility:visible;isolation:auto;mix-blend-mode:normal;color-interpolation:sRGB;color-interpolation-filters:linearRGB;solid-color:#000000;solid-opacity:1;vector-effect:none;fill:#000000;fill-opacity:1;fill-rule:nonzero;stroke:none;stroke-width:0.740833;stroke-linecap:round;stroke-linejoin:miter;stroke-miterlimit:4;stroke-dasharray:none;stroke-dashoffset:0;stroke-opacity:1;paint-order:markers fill stroke;color-rendering:auto;image-rendering:auto;shape-rendering:auto;text-rendering:auto;enable-background:accumulate;stop-color:#000000;stop-opacity:1" />
    </g>
  </g>
</svg>
