<?xml version="1.0" standalone="no"?>
<!DOCTYPE svg PUBLIC "-//W3C//DTD SVG 20010904//EN"
 "http://www.w3.org/TR/2001/REC-SVG-20010904/DTD/svg10.dtd">
<svg version="1.0" xmlns="http://www.w3.org/2000/svg"
 width="560.000000pt" height="560.000000pt" viewBox="0 0 560.000000 560.000000"
 preserveAspectRatio="xMidYMid meet">
<metadata>
Created by potrace 1.11, written by Peter Selinger 2001-2013
</metadata>
<g transform="translate(0.000000,560.000000) scale(0.100000,-0.100000)"
fill="#000000" stroke="none">
<path d="M2513 5235 c-426 -54 -837 -222 -1192 -488 -123 -92 -366 -335 -458
-458 -197 -263 -346 -566 -424 -863 -63 -242 -74 -335 -74 -636 0 -308 13
-410 81 -658 164 -599 567 -1129 1104 -1452 305 -184 673 -305 1034 -340 154
-15 445 -8 591 15 1078 169 1905 998 2070 2075 39 252 29 596 -25 859 -151
740 -646 1379 -1325 1711 -235 114 -429 177 -689 221 -159 28 -528 35 -693 14z
m348 -465 c125 -23 247 -113 302 -223 l28 -54 90 -27 c557 -167 998 -617 1162
-1186 l25 -85 72 -36 c188 -96 276 -285 224 -484 -30 -118 -115 -221 -222
-270 -31 -15 -63 -30 -70 -33 -7 -4 -30 -60 -52 -124 -174 -522 -581 -927
-1101 -1099 -71 -24 -129 -48 -129 -54 0 -32 -66 -138 -113 -183 -171 -161
-413 -161 -584 0 -48 46 -113 151 -113 184 0 7 -26 20 -57 29 -325 93 -620
278 -841 527 -152 172 -280 397 -351 614 l-37 114 -62 30 c-205 97 -293 350
-195 559 34 72 122 159 195 195 52 25 59 33 68 70 81 321 292 661 543 877 180
154 419 287 635 352 l112 34 26 52 c63 126 218 224 365 230 15 1 51 -4 80 -9z"/>
<path d="M2330 4154 c-349 -119 -654 -383 -818 -709 -42 -84 -102 -245 -102
-274 0 -9 16 -25 36 -36 51 -27 112 -99 147 -175 39 -82 49 -205 23 -292 -28
-97 -105 -193 -204 -253 -7 -5 66 -191 106 -269 167 -324 463 -579 807 -695
l89 -30 62 68 c88 95 188 141 309 141 119 0 206 -39 302 -137 l73 -72 87 30
c358 125 647 378 816 714 46 93 101 249 88 253 -25 8 -95 72 -130 120 -57 75
-76 139 -75 247 1 103 22 170 79 248 30 40 87 90 133 116 10 6 4 31 -23 111
-145 414 -439 719 -847 876 -103 40 -121 42 -135 12 -6 -13 -32 -47 -57 -75
-162 -179 -454 -177 -619 6 -20 22 -43 54 -52 70 -8 17 -17 31 -18 31 -1 0
-36 -12 -77 -26z m595 -1524 l-575 -575 -147 148 -148 147 575 575 575 575
147 -147 148 -148 -575 -575z"/>
</g>
</svg>
